<?xml version="1.0" encoding="UTF-8" standalone="no"?>
<!-- Created with Inkscape (http://www.inkscape.org/) -->

<svg
   version="1.1"
   id="svg1"
   width="2666.6667"
   height="2666.6667"
   viewBox="0 0 2666.6667 2666.6667"
   sodipodi:docname="logo"
   inkscape:version="1.3.1 (9b9bdc1480, 2023-11-25, custom)"
   xmlns:inkscape="http://www.inkscape.org/namespaces/inkscape"
   xmlns:sodipodi="http://sodipodi.sourceforge.net/DTD/sodipodi-0.dtd"
   xmlns="http://www.w3.org/2000/svg"
   xmlns:svg="http://www.w3.org/2000/svg">
  <defs
     id="defs1">
    <linearGradient
       x1="0"
       y1="0"
       x2="1"
       y2="0"
       gradientUnits="userSpaceOnUse"
       gradientTransform="matrix(-1197.33,-1570.9,-1570.9,1197.33,14144.7,5563.7)"
       spreadMethod="pad"
       id="linearGradient11">
      <stop
         style="stop-opacity:1;stop-color:#d51e27"
         offset="0"
         id="stop9" />
      <stop
         style="stop-opacity:1;stop-color:#161413"
         offset="0.978495"
         id="stop10" />
      <stop
         style="stop-opacity:1;stop-color:#161413"
         offset="1"
         id="stop11" />
    </linearGradient>
    <clipPath
       clipPathUnits="userSpaceOnUse"
       id="clipPath11">
      <path
         d="m 13662,4976.9 c -9.6,-0.7 -18.7,-1.3 -27.6,-2.7 -23.2,-3.5 -40.2,-11.9 -50.6,-24.8 -8.3,-10.3 -13.3,-24.9 -14.4,-41.2 24.9,9.5 49.9,15.2 74.5,17.1 12.3,0.9 23.3,0.8 33,0.7 20,-0.2 35.9,-0.4 56.3,7.6 18,7 34.8,18.5 49.9,34.3 -2.2,10.1 -5.2,19.9 -8.8,29.3 l -72.9,-15.7 c -13.3,-2.8 -26.5,-3.7 -39.4,-4.6 z"
         transform="translate(0,2.5000001e-4)"
         id="path11" />
    </clipPath>
    <linearGradient
       x1="0"
       y1="0"
       x2="1"
       y2="0"
       gradientUnits="userSpaceOnUse"
       gradientTransform="matrix(-1197.33,-1570.9,-1570.9,1197.33,13289.7,6215.4)"
       spreadMethod="pad"
       id="linearGradient14">
      <stop
         style="stop-opacity:1;stop-color:#d51e27"
         offset="0"
         id="stop12" />
      <stop
         style="stop-opacity:1;stop-color:#161413"
         offset="0.978495"
         id="stop13" />
      <stop
         style="stop-opacity:1;stop-color:#161413"
         offset="1"
         id="stop14" />
    </linearGradient>
    <clipPath
       clipPathUnits="userSpaceOnUse"
       id="clipPath14">
      <path
         d="m 12364.8,4974.2 c -8.9,1.4 -18,2 -27.6,2.7 -12.9,0.9 -26.2,1.8 -39.4,4.6 l -72.9,15.7 c -3.6,-9.4 -6.6,-19.2 -8.9,-29.3 15.2,-15.8 32,-27.3 50,-34.3 20.4,-8 36.2,-7.8 56.3,-7.6 3.1,0 6.4,0 9.7,0 7.2,0 14.9,-0.1 23.3,-0.7 24.6,-1.9 49.6,-7.6 74.5,-17.1 -1.1,16.3 -6.2,30.9 -14.4,41.2 -10.4,12.9 -27.4,21.3 -50.6,24.8 z"
         transform="translate(0,2.5000001e-4)"
         id="path14" />
    </clipPath>
    <linearGradient
       x1="0"
       y1="0"
       x2="1"
       y2="0"
       gradientUnits="userSpaceOnUse"
       gradientTransform="matrix(-1197.33,-1570.9,-1570.9,1197.33,13576.7,5996.6)"
       spreadMethod="pad"
       id="linearGradient17">
      <stop
         style="stop-opacity:1;stop-color:#d51e27"
         offset="0"
         id="stop15" />
      <stop
         style="stop-opacity:1;stop-color:#161413"
         offset="0.978495"
         id="stop16" />
      <stop
         style="stop-opacity:1;stop-color:#161413"
         offset="1"
         id="stop17" />
    </linearGradient>
    <clipPath
       clipPathUnits="userSpaceOnUse"
       id="clipPath17">
      <path
         d="m 12722.8,4779.4 -1.4,2.1 c -5.4,7.9 -11.3,15.9 -17.6,23.7 l -0.6,0.9 c -13.7,17.1 -28.2,33 -40.6,46.3 -8.4,9 -16.6,17.6 -25.3,25.6 -5.5,4.9 -11.1,9.6 -17,14 -4.4,-32.2 2.3,-62.7 19.2,-86.8 17.4,-24.6 44.2,-40.5 75.7,-44.7 8.4,-1.1 17.4,-4.8 25.9,-10.3 -4.4,7.6 -9,15.1 -13.7,22.3 l -1,1.5 c -1.2,1.9 -2.4,3.6 -3.6,5.4 z"
         transform="translate(0,2.5000001e-4)"
         id="path17" />
    </clipPath>
    <linearGradient
       x1="0"
       y1="0"
       x2="1"
       y2="0"
       gradientUnits="userSpaceOnUse"
       gradientTransform="matrix(-1197.33,-1570.9,-1570.9,1197.33,13993.5,5679)"
       spreadMethod="pad"
       id="linearGradient20">
      <stop
         style="stop-opacity:1;stop-color:#d51e27"
         offset="0"
         id="stop18" />
      <stop
         style="stop-opacity:1;stop-color:#161413"
         offset="0.978495"
         id="stop19" />
      <stop
         style="stop-opacity:1;stop-color:#161413"
         offset="1"
         id="stop20" />
    </linearGradient>
    <clipPath
       clipPathUnits="userSpaceOnUse"
       id="clipPath20">
      <path
         d="m 13359.7,4805.3 c 16.9,24 23.6,54.5 19.2,86.7 -5.9,-4.4 -11.5,-9.1 -17,-14 -8.7,-7.9 -16.9,-16.6 -25.3,-25.6 -12.5,-13.4 -27.1,-29.4 -40.9,-46.7 l -0.3,-0.4 c -6.3,-7.9 -12.2,-15.9 -17.6,-23.8 l -1.2,-1.8 c -1.3,-1.9 -2.5,-3.7 -3.8,-5.7 l -0.9,-1.3 c -4.8,-7.3 -9.4,-14.8 -13.8,-22.5 8.5,5.5 17.5,9.2 25.9,10.3 31.5,4.2 58.3,20.1 75.7,44.8 z"
         transform="translate(0,2.5000001e-4)"
         id="path20" />
    </clipPath>
    <linearGradient
       x1="0"
       y1="0"
       x2="1"
       y2="0"
       gradientUnits="userSpaceOnUse"
       gradientTransform="matrix(-1197.33,-1570.9,-1570.9,1197.33,13474.8,6074.3)"
       spreadMethod="pad"
       id="linearGradient23">
      <stop
         style="stop-opacity:1;stop-color:#d51e27"
         offset="0"
         id="stop21" />
      <stop
         style="stop-opacity:1;stop-color:#161413"
         offset="0.978495"
         id="stop22" />
      <stop
         style="stop-opacity:1;stop-color:#161413"
         offset="1"
         id="stop23" />
    </linearGradient>
    <clipPath
       clipPathUnits="userSpaceOnUse"
       id="clipPath23">
      <path
         d="m 11978.7,5380.8 c 22.2,-37.5 49.9,-70.8 81.9,-98.3 9.7,-8.4 19.7,-16.5 30.2,-23.8 33.8,-23.4 60.8,-37 108.7,-58.4 55.9,-25.1 113.8,-45.8 172.3,-61.7 l 71,-19.2 -73.2,-7.9 c -22.1,-2.3 -77.9,-13.6 -118.5,-66.9 -10.6,-13.8 -19.2,-29.4 -25.8,-46.3 l 73.4,10.4 c 22.9,3.3 46.2,3.1 67.9,2.5 14.8,-0.4 29.3,-1.2 43.6,-6 23.3,-7.7 44.3,-26 57.6,-50.2 12,-21.9 17.9,-48.2 17,-75.9 -0.4,-11.1 -1.8,-21.9 -3.2,-32.3 l -3.3,-24.6 c 45.1,-38.2 81.7,-72.8 112.2,-115 29.4,-40.6 51.4,-86.2 70.7,-129.4 23.8,-53.2 45.8,-108.2 65.5,-163.5 4.3,-11.9 8.3,-22.6 13.5,-31.4 7.3,-0.5 18.6,4.8 28.7,9.6 6.3,2.9 12.8,5.9 19.4,8.2 17.2,6 27.2,10.3 30.4,15.5 3.4,5.6 2.8,17.7 0.6,36.9 -10.9,95.8 -34.4,178.1 -72,251.7 -6.6,13 -24,26.7 -35.8,28.3 -39.2,5.2 -72.8,25.2 -94.6,56.2 -22,31.3 -30.1,70.7 -23.2,111.8 -21.6,26.5 -43.1,53.1 -64.7,79.6 6.7,-3.7 13.2,-7.8 19.5,-11.8 6.2,-4 12,-7.7 18,-11 30.4,-17 61.9,-34.6 89.3,-59.4 9.6,-8.7 18.2,-17.8 27,-27.2 12.8,-13.8 27.8,-30.2 42.1,-48.1 l 0.3,-0.4 c 6.8,-8.5 13.2,-17.2 19.1,-25.8 l 1.3,-2 c 1.4,-2 2.7,-4 4.1,-6 l 0.9,-1.5 c 21.3,-32.3 39.2,-68.2 53.3,-106.4 35.2,-95.9 53.2,-183.4 54.8,-267.7 0.5,-27.1 -11.8,-37.3 -30.5,-44.4 -25.7,-9.6 -59.1,-23.2 -90.2,-41.9 -26.2,-15.8 -39.1,-46.5 -34.6,-82 6.7,-53.6 29.9,-101.6 67.1,-138.9 20.1,-20.2 28.9,-21.7 37.3,-19.4 34.3,30.6 72.9,53.7 114.6,68.5 24.4,8.7 49.9,14.4 75.8,17 l 1.4,0.2 1.4,-0.2 c 25.9,-2.6 51.4,-8.3 75.8,-17 41.7,-14.8 80.2,-37.8 114.6,-68.5 8.5,-2.3 17.2,-0.8 37.3,19.4 37.2,37.3 60.4,85.3 67.1,138.9 4.5,35.5 -8.4,66.2 -34.6,82 -31.1,18.7 -64.5,32.3 -90.2,41.9 -18.7,7.1 -31,17.3 -30.5,44.4 1.6,84.3 19.5,171.8 54.8,267.7 14.1,38.2 32,74.1 53.4,106.6 l 0.8,1.2 c 1.4,2.2 2.8,4.3 4.3,6.4 l 1.1,1.7 c 5.9,8.6 12.3,17.3 19.1,25.9 l 0.3,0.3 c 14.3,17.9 29.3,34.4 42.1,48.1 8.8,9.4 17.4,18.6 27,27.2 27.4,24.8 58.8,42.4 89.3,59.4 6,3.3 11.8,7 18,11 6.3,4 12.7,8.1 19.5,11.8 -21.6,-26.5 -43.2,-53.1 -64.7,-79.6 6.9,-41.1 -1.2,-80.5 -23.2,-111.8 -21.8,-31 -55.4,-51 -94.6,-56.2 -11.8,-1.6 -29.2,-15.3 -35.8,-28.3 -37.6,-73.6 -61.1,-155.9 -72,-251.7 -2.2,-19.2 -2.8,-31.3 0.6,-36.9 3.2,-5.2 13.1,-9.5 30.4,-15.5 6.6,-2.3 13.1,-5.3 19.3,-8.2 10.2,-4.8 21.7,-10.1 28.8,-9.6 5.2,8.8 9.2,19.5 13.5,31.4 19.7,55.3 41.7,110.3 65.5,163.5 19.3,43.2 41.3,88.8 70.7,129.4 30.6,42.2 67.1,76.8 112.2,115 l -3.3,24.4 c -1.4,10.5 -2.8,21.3 -3.2,32.5 -0.9,27.7 4.9,54 17,75.9 13.3,24.2 34.3,42.5 57.6,50.2 14.3,4.8 28.8,5.6 43.6,6 21.7,0.6 45,0.8 67.9,-2.5 l 73.4,-10.4 c -6.6,16.9 -15.3,32.5 -25.8,46.3 -40.6,53.3 -96.4,64.6 -118.5,66.9 l -73.3,7.9 71.1,19.2 c 58.5,15.9 116.4,36.6 172.3,61.7 47.9,21.4 74.9,35 108.7,58.4 10.5,7.3 20.5,15.4 30.2,23.8 31.9,27.5 59.7,60.8 81.9,98.3 5.1,8.7 10.1,17.6 14.7,26.8 40.1,80.9 49.7,169.5 26.4,243 -7.4,23.2 -18,45.2 -30.2,69.5 -21,42.2 -46.1,88.1 -78.5,128.5 24.5,-64.3 39.5,-125.9 30,-190.2 -6.5,-43.5 -24.7,-85.7 -52.7,-122.8 -12.9,-17.2 -27.9,-33.3 -44.7,-48 -12.4,-10.8 -26.1,-21 -40.8,-30.5 -0.6,-0.4 -1.3,-0.9 -2,-1.3 -33.9,-21.7 -73.7,-39.8 -121.6,-55.2 -102.2,-33 -212,-45.3 -318.4,-36 24.8,-27.2 45.3,-59.2 60.2,-94 l 49.4,-115.6 -75.8,105.5 c -3,4.8 -6.6,9.5 -11,14.5 l -0.6,0.6 c -13.7,17.3 -28.3,33.2 -43.5,47.4 -10.8,10.1 -22.4,19.8 -33.6,29.2 -11.2,9.5 -22.2,19.2 -32.8,28.7 -9.5,8.4 -19.2,17.1 -29,25.3 -18.2,2.4 -36,7.8 -52.7,16.1 -0.3,0.2 -0.7,0.3 -1,0.5 -0.4,-0.2 -0.7,-0.3 -1,-0.4 -7.4,-3.3 -14.8,-6.7 -22.3,-10.1 -11.9,-5.3 -24.2,-10.9 -36.4,-16.1 -36.4,-15.6 -79.8,-31.8 -126,-33.9 -15.9,-0.7 -31.7,0.4 -46.3,1.6 h -1.4 c -14.7,-1.2 -30.4,-2.3 -46.4,-1.6 -46.1,2.1 -89.5,18.3 -125.9,33.9 -12.2,5.2 -24.5,10.8 -36.4,16.1 -7.4,3.4 -14.9,6.8 -22.3,10.1 -0.3,0.1 -0.6,0.2 -1,0.4 -0.3,-0.1 -0.5,-0.3 -0.7,-0.4 l -0.3,-0.1 c -16.7,-8.3 -34.5,-13.7 -52.7,-16.1 -9.8,-8.2 -19.5,-16.9 -29,-25.3 -10.6,-9.5 -21.6,-19.2 -32.7,-28.6 -11.3,-9.5 -22.9,-19.2 -33.7,-29.3 -15.2,-14.2 -29.8,-30.1 -43.6,-47.4 l -0.5,-0.6 c -4.4,-5 -8.1,-9.7 -11,-14.5 l -2.4,-3.4 -73.9,-103.3 49.9,116.8 c 14.9,34.8 35.4,66.8 60.2,94 -106.4,-9.3 -216.3,3 -318.4,36 -47.9,15.4 -87.7,33.5 -121.6,55.2 -0.7,0.4 -1.4,0.9 -2,1.3 -14.7,9.5 -28.5,19.7 -40.8,30.5 -16.9,14.7 -31.8,30.8 -44.8,48 -27.9,37.1 -46.1,79.3 -52.6,122.8 -9.5,64.3 5.5,125.9 30,190.2 -32.4,-40.4 -57.5,-86.3 -78.5,-128.5 -12.2,-24.3 -22.8,-46.3 -30.2,-69.5 -23.3,-73.5 -13.7,-162.1 26.4,-243 4.6,-9.2 9.6,-18.1 14.7,-26.8 z"
         transform="translate(0,2.5000001e-4)"
         id="path23" />
    </clipPath>
    <linearGradient
       x1="0"
       y1="0"
       x2="1"
       y2="0"
       gradientUnits="userSpaceOnUse"
       gradientTransform="matrix(-1197.33,-1570.9,-1570.9,1197.33,13756.4,5859.7)"
       spreadMethod="pad"
       id="linearGradient26">
      <stop
         style="stop-opacity:1;stop-color:#d51e27"
         offset="0"
         id="stop24" />
      <stop
         style="stop-opacity:1;stop-color:#161413"
         offset="0.978495"
         id="stop25" />
      <stop
         style="stop-opacity:1;stop-color:#161413"
         offset="1"
         id="stop26" />
    </linearGradient>
    <clipPath
       clipPathUnits="userSpaceOnUse"
       id="clipPath26">
      <path
         d="m 14034.4,5350.6 c -23.7,-36.3 -52.4,-68.4 -84.9,-95.2 43.3,-112.9 67.1,-235.4 67.1,-363.4 0,-560.8 -456.2,-1017.1 -1017,-1017.1 -560.8,0 -1017,456.3 -1017,1017.1 0,128 23.8,250.5 67.1,363.4 -32.5,26.8 -61.2,58.9 -84.9,95.2 -62.4,-140.2 -97.2,-295.4 -97.2,-458.6 0,-624.2 507.8,-1132 1132,-1132 624.2,0 1132,507.8 1132,1132 0,163.2 -34.8,318.4 -97.2,458.6 z"
         transform="translate(0,2.5000001e-4)"
         id="path26" />
    </clipPath>
    <linearGradient
       x1="0"
       y1="0"
       x2="1"
       y2="0"
       gradientUnits="userSpaceOnUse"
       gradientTransform="matrix(-1197.33,-1570.9,-1570.9,1197.33,13422.5,6114.2)"
       spreadMethod="pad"
       id="linearGradient29">
      <stop
         style="stop-opacity:1;stop-color:#d51e27"
         offset="0"
         id="stop27" />
      <stop
         style="stop-opacity:1;stop-color:#161413"
         offset="0.978495"
         id="stop28" />
      <stop
         style="stop-opacity:1;stop-color:#161413"
         offset="1"
         id="stop29" />
    </linearGradient>
    <clipPath
       clipPathUnits="userSpaceOnUse"
       id="clipPath29">
      <path
         d="m 12131.9,5508.4 c 11.5,-10 24.4,-19.6 38.3,-28.5 184.4,259.5 487.5,429.1 829.4,429.1 341.9,0 645,-169.6 829.4,-429.1 13.9,8.9 26.8,18.5 38.3,28.5 17.7,15.5 33.1,32.6 46,50.9 -206.1,281.5 -538.9,464.7 -913.7,464.7 -374.8,0 -707.6,-183.2 -913.7,-464.7 12.8,-18.3 28.3,-35.4 46,-50.9 z"
         transform="translate(0,2.5000001e-4)"
         id="path29" />
    </clipPath>
    <clipPath
       clipPathUnits="userSpaceOnUse"
       id="clipPath11-3">
      <path
         d="m 13662,4976.9 c -9.6,-0.7 -18.7,-1.3 -27.6,-2.7 -23.2,-3.5 -40.2,-11.9 -50.6,-24.8 -8.3,-10.3 -13.3,-24.9 -14.4,-41.2 24.9,9.5 49.9,15.2 74.5,17.1 12.3,0.9 23.3,0.8 33,0.7 20,-0.2 35.9,-0.4 56.3,7.6 18,7 34.8,18.5 49.9,34.3 -2.2,10.1 -5.2,19.9 -8.8,29.3 l -72.9,-15.7 c -13.3,-2.8 -26.5,-3.7 -39.4,-4.6 z"
         transform="translate(0,2.5000001e-4)"
         id="path11-7" />
    </clipPath>
    <clipPath
       clipPathUnits="userSpaceOnUse"
       id="clipPath14-5">
      <path
         d="m 12364.8,4974.2 c -8.9,1.4 -18,2 -27.6,2.7 -12.9,0.9 -26.2,1.8 -39.4,4.6 l -72.9,15.7 c -3.6,-9.4 -6.6,-19.2 -8.9,-29.3 15.2,-15.8 32,-27.3 50,-34.3 20.4,-8 36.2,-7.8 56.3,-7.6 3.1,0 6.4,0 9.7,0 7.2,0 14.9,-0.1 23.3,-0.7 24.6,-1.9 49.6,-7.6 74.5,-17.1 -1.1,16.3 -6.2,30.9 -14.4,41.2 -10.4,12.9 -27.4,21.3 -50.6,24.8 z"
         transform="translate(0,2.5000001e-4)"
         id="path14-9" />
    </clipPath>
    <clipPath
       clipPathUnits="userSpaceOnUse"
       id="clipPath17-2">
      <path
         d="m 12722.8,4779.4 -1.4,2.1 c -5.4,7.9 -11.3,15.9 -17.6,23.7 l -0.6,0.9 c -13.7,17.1 -28.2,33 -40.6,46.3 -8.4,9 -16.6,17.6 -25.3,25.6 -5.5,4.9 -11.1,9.6 -17,14 -4.4,-32.2 2.3,-62.7 19.2,-86.8 17.4,-24.6 44.2,-40.5 75.7,-44.7 8.4,-1.1 17.4,-4.8 25.9,-10.3 -4.4,7.6 -9,15.1 -13.7,22.3 l -1,1.5 c -1.2,1.9 -2.4,3.6 -3.6,5.4 z"
         transform="translate(0,2.5000001e-4)"
         id="path17-2" />
    </clipPath>
    <clipPath
       clipPathUnits="userSpaceOnUse"
       id="clipPath20-8">
      <path
         d="m 13359.7,4805.3 c 16.9,24 23.6,54.5 19.2,86.7 -5.9,-4.4 -11.5,-9.1 -17,-14 -8.7,-7.9 -16.9,-16.6 -25.3,-25.6 -12.5,-13.4 -27.1,-29.4 -40.9,-46.7 l -0.3,-0.4 c -6.3,-7.9 -12.2,-15.9 -17.6,-23.8 l -1.2,-1.8 c -1.3,-1.9 -2.5,-3.7 -3.8,-5.7 l -0.9,-1.3 c -4.8,-7.3 -9.4,-14.8 -13.8,-22.5 8.5,5.5 17.5,9.2 25.9,10.3 31.5,4.2 58.3,20.1 75.7,44.8 z"
         transform="translate(0,2.5000001e-4)"
         id="path20-9" />
    </clipPath>
    <clipPath
       clipPathUnits="userSpaceOnUse"
       id="clipPath23-7">
      <path
         d="m 11978.7,5380.8 c 22.2,-37.5 49.9,-70.8 81.9,-98.3 9.7,-8.4 19.7,-16.5 30.2,-23.8 33.8,-23.4 60.8,-37 108.7,-58.4 55.9,-25.1 113.8,-45.8 172.3,-61.7 l 71,-19.2 -73.2,-7.9 c -22.1,-2.3 -77.9,-13.6 -118.5,-66.9 -10.6,-13.8 -19.2,-29.4 -25.8,-46.3 l 73.4,10.4 c 22.9,3.3 46.2,3.1 67.9,2.5 14.8,-0.4 29.3,-1.2 43.6,-6 23.3,-7.7 44.3,-26 57.6,-50.2 12,-21.9 17.9,-48.2 17,-75.9 -0.4,-11.1 -1.8,-21.9 -3.2,-32.3 l -3.3,-24.6 c 45.1,-38.2 81.7,-72.8 112.2,-115 29.4,-40.6 51.4,-86.2 70.7,-129.4 23.8,-53.2 45.8,-108.2 65.5,-163.5 4.3,-11.9 8.3,-22.6 13.5,-31.4 7.3,-0.5 18.6,4.8 28.7,9.6 6.3,2.9 12.8,5.9 19.4,8.2 17.2,6 27.2,10.3 30.4,15.5 3.4,5.6 2.8,17.7 0.6,36.9 -10.9,95.8 -34.4,178.1 -72,251.7 -6.6,13 -24,26.7 -35.8,28.3 -39.2,5.2 -72.8,25.2 -94.6,56.2 -22,31.3 -30.1,70.7 -23.2,111.8 -21.6,26.5 -43.1,53.1 -64.7,79.6 6.7,-3.7 13.2,-7.8 19.5,-11.8 6.2,-4 12,-7.7 18,-11 30.4,-17 61.9,-34.6 89.3,-59.4 9.6,-8.7 18.2,-17.8 27,-27.2 12.8,-13.8 27.8,-30.2 42.1,-48.1 l 0.3,-0.4 c 6.8,-8.5 13.2,-17.2 19.1,-25.8 l 1.3,-2 c 1.4,-2 2.7,-4 4.1,-6 l 0.9,-1.5 c 21.3,-32.3 39.2,-68.2 53.3,-106.4 35.2,-95.9 53.2,-183.4 54.8,-267.7 0.5,-27.1 -11.8,-37.3 -30.5,-44.4 -25.7,-9.6 -59.1,-23.2 -90.2,-41.9 -26.2,-15.8 -39.1,-46.5 -34.6,-82 6.7,-53.6 29.9,-101.6 67.1,-138.9 20.1,-20.2 28.9,-21.7 37.3,-19.4 34.3,30.6 72.9,53.7 114.6,68.5 24.4,8.7 49.9,14.4 75.8,17 l 1.4,0.2 1.4,-0.2 c 25.9,-2.6 51.4,-8.3 75.8,-17 41.7,-14.8 80.2,-37.8 114.6,-68.5 8.5,-2.3 17.2,-0.8 37.3,19.4 37.2,37.3 60.4,85.3 67.1,138.9 4.5,35.5 -8.4,66.2 -34.6,82 -31.1,18.7 -64.5,32.3 -90.2,41.9 -18.7,7.1 -31,17.3 -30.5,44.4 1.6,84.3 19.5,171.8 54.8,267.7 14.1,38.2 32,74.1 53.4,106.6 l 0.8,1.2 c 1.4,2.2 2.8,4.3 4.3,6.4 l 1.1,1.7 c 5.9,8.6 12.3,17.3 19.1,25.9 l 0.3,0.3 c 14.3,17.9 29.3,34.4 42.1,48.1 8.8,9.4 17.4,18.6 27,27.2 27.4,24.8 58.8,42.4 89.3,59.4 6,3.3 11.8,7 18,11 6.3,4 12.7,8.1 19.5,11.8 -21.6,-26.5 -43.2,-53.1 -64.7,-79.6 6.9,-41.1 -1.2,-80.5 -23.2,-111.8 -21.8,-31 -55.4,-51 -94.6,-56.2 -11.8,-1.6 -29.2,-15.3 -35.8,-28.3 -37.6,-73.6 -61.1,-155.9 -72,-251.7 -2.2,-19.2 -2.8,-31.3 0.6,-36.9 3.2,-5.2 13.1,-9.5 30.4,-15.5 6.6,-2.3 13.1,-5.3 19.3,-8.2 10.2,-4.8 21.7,-10.1 28.8,-9.6 5.2,8.8 9.2,19.5 13.5,31.4 19.7,55.3 41.7,110.3 65.5,163.5 19.3,43.2 41.3,88.8 70.7,129.4 30.6,42.2 67.1,76.8 112.2,115 l -3.3,24.4 c -1.4,10.5 -2.8,21.3 -3.2,32.5 -0.9,27.7 4.9,54 17,75.9 13.3,24.2 34.3,42.5 57.6,50.2 14.3,4.8 28.8,5.6 43.6,6 21.7,0.6 45,0.8 67.9,-2.5 l 73.4,-10.4 c -6.6,16.9 -15.3,32.5 -25.8,46.3 -40.6,53.3 -96.4,64.6 -118.5,66.9 l -73.3,7.9 71.1,19.2 c 58.5,15.9 116.4,36.6 172.3,61.7 47.9,21.4 74.9,35 108.7,58.4 10.5,7.3 20.5,15.4 30.2,23.8 31.9,27.5 59.7,60.8 81.9,98.3 5.1,8.7 10.1,17.6 14.7,26.8 40.1,80.9 49.7,169.5 26.4,243 -7.4,23.2 -18,45.2 -30.2,69.5 -21,42.2 -46.1,88.1 -78.5,128.5 24.5,-64.3 39.5,-125.9 30,-190.2 -6.5,-43.5 -24.7,-85.7 -52.7,-122.8 -12.9,-17.2 -27.9,-33.3 -44.7,-48 -12.4,-10.8 -26.1,-21 -40.8,-30.5 -0.6,-0.4 -1.3,-0.9 -2,-1.3 -33.9,-21.7 -73.7,-39.8 -121.6,-55.2 -102.2,-33 -212,-45.3 -318.4,-36 24.8,-27.2 45.3,-59.2 60.2,-94 l 49.4,-115.6 -75.8,105.5 c -3,4.8 -6.6,9.5 -11,14.5 l -0.6,0.6 c -13.7,17.3 -28.3,33.2 -43.5,47.4 -10.8,10.1 -22.4,19.8 -33.6,29.2 -11.2,9.5 -22.2,19.2 -32.8,28.7 -9.5,8.4 -19.2,17.1 -29,25.3 -18.2,2.4 -36,7.8 -52.7,16.1 -0.3,0.2 -0.7,0.3 -1,0.5 -0.4,-0.2 -0.7,-0.3 -1,-0.4 -7.4,-3.3 -14.8,-6.7 -22.3,-10.1 -11.9,-5.3 -24.2,-10.9 -36.4,-16.1 -36.4,-15.6 -79.8,-31.8 -126,-33.9 -15.9,-0.7 -31.7,0.4 -46.3,1.6 h -1.4 c -14.7,-1.2 -30.4,-2.3 -46.4,-1.6 -46.1,2.1 -89.5,18.3 -125.9,33.9 -12.2,5.2 -24.5,10.8 -36.4,16.1 -7.4,3.4 -14.9,6.8 -22.3,10.1 -0.3,0.1 -0.6,0.2 -1,0.4 -0.3,-0.1 -0.5,-0.3 -0.7,-0.4 l -0.3,-0.1 c -16.7,-8.3 -34.5,-13.7 -52.7,-16.1 -9.8,-8.2 -19.5,-16.9 -29,-25.3 -10.6,-9.5 -21.6,-19.2 -32.7,-28.6 -11.3,-9.5 -22.9,-19.2 -33.7,-29.3 -15.2,-14.2 -29.8,-30.1 -43.6,-47.4 l -0.5,-0.6 c -4.4,-5 -8.1,-9.7 -11,-14.5 l -2.4,-3.4 -73.9,-103.3 49.9,116.8 c 14.9,34.8 35.4,66.8 60.2,94 -106.4,-9.3 -216.3,3 -318.4,36 -47.9,15.4 -87.7,33.5 -121.6,55.2 -0.7,0.4 -1.4,0.9 -2,1.3 -14.7,9.5 -28.5,19.7 -40.8,30.5 -16.9,14.7 -31.8,30.8 -44.8,48 -27.9,37.1 -46.1,79.3 -52.6,122.8 -9.5,64.3 5.5,125.9 30,190.2 -32.4,-40.4 -57.5,-86.3 -78.5,-128.5 -12.2,-24.3 -22.8,-46.3 -30.2,-69.5 -23.3,-73.5 -13.7,-162.1 26.4,-243 4.6,-9.2 9.6,-18.1 14.7,-26.8 z"
         transform="translate(0,2.5000001e-4)"
         id="path23-3" />
    </clipPath>
    <clipPath
       clipPathUnits="userSpaceOnUse"
       id="clipPath26-6">
      <path
         d="m 14034.4,5350.6 c -23.7,-36.3 -52.4,-68.4 -84.9,-95.2 43.3,-112.9 67.1,-235.4 67.1,-363.4 0,-560.8 -456.2,-1017.1 -1017,-1017.1 -560.8,0 -1017,456.3 -1017,1017.1 0,128 23.8,250.5 67.1,363.4 -32.5,26.8 -61.2,58.9 -84.9,95.2 -62.4,-140.2 -97.2,-295.4 -97.2,-458.6 0,-624.2 507.8,-1132 1132,-1132 624.2,0 1132,507.8 1132,1132 0,163.2 -34.8,318.4 -97.2,458.6 z"
         transform="translate(0,2.5000001e-4)"
         id="path26-1" />
    </clipPath>
    <clipPath
       clipPathUnits="userSpaceOnUse"
       id="clipPath29-2">
      <path
         d="m 12131.9,5508.4 c 11.5,-10 24.4,-19.6 38.3,-28.5 184.4,259.5 487.5,429.1 829.4,429.1 341.9,0 645,-169.6 829.4,-429.1 13.9,8.9 26.8,18.5 38.3,28.5 17.7,15.5 33.1,32.6 46,50.9 -206.1,281.5 -538.9,464.7 -913.7,464.7 -374.8,0 -707.6,-183.2 -913.7,-464.7 12.8,-18.3 28.3,-35.4 46,-50.9 z"
         transform="translate(0,2.5000001e-4)"
         id="path29-9" />
    </clipPath>
  </defs>
  <sodipodi:namedview
     id="namedview1"
     pagecolor="#ffffff"
     bordercolor="#000000"
     borderopacity="0.25"
     inkscape:showpageshadow="2"
     inkscape:pageopacity="0.0"
     inkscape:pagecheckerboard="0"
     inkscape:deskcolor="#d1d1d1"
     showgrid="false"
     inkscape:zoom="0.1767767"
     inkscape:cx="1023.8906"
     inkscape:cy="1541.4928"
     inkscape:window-width="1910"
     inkscape:window-height="1009"
     inkscape:window-x="0"
     inkscape:window-y="0"
     inkscape:window-maximized="1"
     inkscape:current-layer="g1">
    <inkscape:page
       x="0"
       y="0"
       inkscape:label="1"
       id="page1"
       width="2666.6667"
       height="2666.6667"
       margin="0"
       bleed="0" />
  </sodipodi:namedview>
  <g
     id="g1"
     inkscape:groupmode="layer"
     inkscape:label="1">
    <g
       id="group-R5"
       sodipodi:insensitive="true"
       style="display:none">
      <path
         id="path2"
         d="M 20000,0 H 0 V 20000 H 20000 V 0"
         style="fill:#ffffff;fill-opacity:1;fill-rule:nonzero;stroke:none"
         transform="matrix(0.13333333,0,0,-0.13333333,0,2666.6667)" />
      <path
         id="path3"
         d="m 15028.7,15043.8 c -37.1,116.7 -90.7,226.1 -144.8,334.4 -162.1,324.3 -348.6,637.7 -615.6,861.8 161.1,-368 326.6,-766.1 266.7,-1169.4 -45,-302.5 -216.3,-570.2 -434.2,-759.9 -60.9,-53 -125.3,-100.3 -192.3,-143.1 -172.5,-110.2 -362.1,-189.1 -554,-251 -490.2,-158.1 -1007.6,-212.6 -1516.1,-160.3 -28.7,2.9 -57.4,6 -86,9.6 -17.3,2.2 -32.1,3.4 -46.3,4 170.6,-144.2 309.5,-333.7 401.3,-548.2 -3,4 -5.9,8 -8.9,12.1 -17.1,27.7 -37,53.1 -58.4,77 -64.9,81.6 -135,158.3 -210.3,228.6 -51.9,48.4 -106.1,94 -160.1,139.5 -102.5,86.1 -200.7,178.4 -303.2,264.6 -84.5,8.6 -167.6,32.8 -244.7,71 -9.7,4.8 -19.6,9.9 -30.2,10.6 -11.8,0.7 -23.1,-4.2 -34,-9.1 -90.9,-40.2 -181.9,-82.7 -273.8,-122.1 -183.6,-78.6 -370.6,-144.5 -566.6,-153.1 -70.4,-3.1 -140.9,1.4 -211.3,7.3 -3.9,0 -7.88,0 -11.84,0 -70.35,-5.9 -140.84,-10.4 -211.3,-7.3 -196.02,8.6 -383.01,74.5 -566.57,153.1 -91.88,39.4 -182.92,81.9 -273.76,122.1 -10.93,4.9 -22.26,9.8 -34,9.1 -10.66,-0.7 -20.55,-5.8 -30.25,-10.6 -77.12,-38.2 -160.2,-62.4 -244.69,-71 -102.5,-86.2 -200.65,-178.5 -303.15,-264.6 -54.08,-45.5 -108.21,-91.1 -160.1,-139.5 -75.35,-70.3 -145.45,-147 -210.34,-228.6 -21.42,-23.9 -41.26,-49.3 -58.47,-77 -2.92,-4.1 -5.9,-8.1 -8.79,-12.1 91.74,214.5 230.69,404 401.24,548.2 -14.13,-0.6 -28.97,-1.8 -46.26,-4 -28.64,-3.6 -57.31,-6.7 -86.01,-9.6 -508.49,-52.3 -1025.9,2.2 -1516.16,160.3 -191.85,61.9 -381.43,140.8 -553.95,251 -66.94,42.8 -131.42,90.1 -192.33,143.1 -217.9,189.7 -389.21,457.4 -434.13,759.9 -59.92,403.3 105.51,801.4 266.62,1169.4 -266.98,-224.1 -453.49,-537.5 -615.56,-861.8 -54.13,-108.3 -107.75,-217.7 -144.83,-334.4 -122.79,-386.5 -50.9,-825.5 127.32,-1184.7 145.06,-292.4 358.61,-543 614.04,-720.6 160.83,-111.8 288.65,-176.2 518.79,-279.5 315.32,-141.4 595.51,-232.1 815.28,-291.6 -73.42,-7.8 -379.58,-50 -599.17,-338.1 -120.05,-157.6 -164.4,-323.2 -182.36,-417.4 56.24,-63.2 148.6,-150.1 280.05,-201.4 158.38,-61.8 267.27,-30.5 436.35,-43.2 102.62,-7.7 244.86,-33.1 415.47,-111.8 0.98,9.5 2.02,19 2.61,28.5 6.58,107.5 -16.94,220.9 -81.64,301.4 -68.87,85.7 -174.43,123.7 -277.13,139.5 -102.7,15.7 -208.1,11.5 -309.9,33.3 101.46,14.5 204.16,14 306.41,10.9 62.45,-1.8 125.67,-4.8 185.53,-24.6 97.22,-32.1 180.44,-108.6 233.03,-204.4 52.62,-95.9 75.44,-210 71.7,-322 -1.63,-48.8 -8.12,-97.2 -14.59,-145.5 -6.66,-49.7 -13.32,-99.5 -19.98,-149.3 196.12,-164.7 387.75,-337.3 541.21,-549.3 130.89,-180.8 230.98,-386.1 323.76,-593.7 111.08,-248.5 212.79,-502.1 304.81,-759.9 22.15,-62 46.24,-127.3 82.16,-179.7 4.16,-2.3 8.43,-4.2 12.9,-5.6 78.86,-24 182.41,49.9 274.93,82.2 194.64,68 212.96,94.8 188.17,313.3 -47.95,422.8 -153.68,828.2 -343.45,1199.5 -39.86,78 -137.81,156.6 -216.37,167.1 -351.63,46.8 -570.81,368.3 -488.76,747.4 -128.96,106 -266.37,201.2 -404.82,290.2 59.47,-33.2 115.83,-73.8 175.3,-107 141.18,-78.7 283.62,-158.4 405.85,-269.1 42.73,-38.8 82.66,-81 122.29,-123.5 66.76,-71.6 132.95,-145 194.58,-222.3 0.09,-0.1 0.2,-0.2 0.31,-0.3 30.16,-37.9 59,-76.8 86.32,-116.9 8.12,-12 16.41,-23.9 24.25,-36.1 1.41,-2.2 2.87,-4.3 4.25,-6.5 96.8,-147.4 178.11,-308.9 243.09,-485.6 145.59,-395.7 244.21,-800.9 252.53,-1230.8 1.72,-89.1 -27.85,-118.2 -101.09,-145.8 -147.84,-55.8 -295.68,-119 -432.42,-201.5 -153.97,-93 -215.24,-267.6 -192.58,-446.9 33.78,-267.5 148.88,-503.2 332.24,-687.2 101.3,-101.6 166.81,-131.7 252.98,-102.9 113.27,102.9 288.01,233.2 524.92,317.3 124.96,44.4 240.31,66.2 339.55,76.3 99.21,-10.1 214.61,-31.9 339.51,-76.3 237,-84.1 411.7,-214.4 525,-317.3 86.2,-28.8 151.6,1.3 253,102.9 183.3,184 298.4,419.7 332.2,687.2 22.6,179.3 -38.6,353.9 -192.6,446.9 -136.7,82.5 -284.5,145.7 -432.4,201.5 -73.3,27.6 -102.8,56.7 -101.1,145.8 8.3,429.9 107,835.1 252.5,1230.8 65,176.7 146.3,338.2 243.1,485.6 1.4,2.2 2.9,4.3 4.3,6.5 7.8,12.2 16.1,24.1 24.2,36.1 27.3,40.1 56.2,79 86.4,116.9 0.1,0.1 0.1,0.2 0.3,0.3 61.6,77.3 127.8,150.7 194.5,222.3 39.7,42.5 79.6,84.7 122.3,123.5 122.3,110.7 264.7,190.4 405.9,269.1 59.4,33.2 115.8,73.8 175.3,107 -138.5,-89 -275.9,-184.2 -404.8,-290.2 82,-379.1 -137.2,-700.6 -488.8,-747.4 -78.6,-10.5 -176.5,-89.1 -216.4,-167.1 -189.7,-371.3 -295.5,-776.7 -343.4,-1199.5 -24.8,-218.5 -6.5,-245.3 188.2,-313.3 92.5,-32.3 196,-106.2 274.9,-82.2 4.4,1.4 8.7,3.3 12.9,5.6 35.9,52.4 60,117.7 82.1,179.7 92.1,257.8 193.8,511.4 304.9,759.9 92.7,207.6 192.8,412.9 323.7,593.7 153.5,212 345.1,384.6 541.2,549.3 -6.6,49.8 -13.3,99.6 -20,149.3 -6.4,48.3 -12.9,96.7 -14.5,145.5 -3.8,112 19,226.1 71.6,322 52.6,95.8 135.9,172.3 233.1,204.4 59.8,19.8 123.1,22.8 185.5,24.6 102.2,3.1 205,3.6 306.4,-10.9 -101.8,-21.8 -207.2,-17.6 -309.9,-33.3 -102.7,-15.8 -208.3,-53.8 -277.1,-139.5 -64.7,-80.5 -88.2,-193.9 -81.6,-301.4 0.5,-9.5 1.6,-19 2.6,-28.5 170.6,78.7 312.8,104.1 415.4,111.8 169.1,12.7 278,-18.6 436.4,43.2 131.4,51.3 223.8,138.2 280,201.4 -18,94.2 -62.3,259.8 -182.3,417.4 -219.6,288.1 -525.8,330.3 -599.2,338.1 219.8,59.5 499.9,150.2 815.3,291.6 230.1,103.3 358,167.7 518.7,279.5 255.5,177.6 469,428.2 614.1,720.6 178.2,359.2 250.1,798.2 127.3,1184.7"
         style="fill:#231f20;fill-opacity:1;fill-rule:nonzero;stroke:none"
         transform="matrix(0.13333333,0,0,-0.13333333,0,2666.6667)" />
      <path
         id="path4"
         d="m 10600.2,7781.1 c -184.1,122.7 -387.2,195 -600.21,189.3 -212.96,5.7 -416.09,-66.6 -600.15,-189.3 -30.11,-20.1 -58.38,-43.5 -86.01,-68.1 -58.38,-52.1 -59.87,-150 -3.2,-204.3 35.75,-34.3 71.58,-68.6 107.62,-102.6 5.73,-5.4 16.41,-6.2 24.84,-6.2 121.98,-0.5 243.96,-0.6 365.95,-0.6 63.66,0 127.32,0 190.95,0 63.61,0 127.31,0 190.91,0 122.1,0 244,0.1 366,0.6 8.4,0 19.1,0.8 24.9,6.2 36,34 71.8,68.3 107.6,102.6 56.6,54.3 55.1,152.2 -3.2,204.3 -27.7,24.6 -56,48 -86,68.1"
         style="fill:#231f20;fill-opacity:1;fill-rule:nonzero;stroke:none"
         transform="matrix(0.13333333,0,0,-0.13333333,0,2666.6667)" />
      <path
         id="path5"
         d="m 9741.51,4750.2 c -8.52,5.5 -17.55,9.2 -25.93,10.3 -31.44,4.2 -58.31,20.1 -75.65,44.7 -16.92,24.1 -23.6,54.6 -19.22,86.8 5.85,-4.4 11.52,-9.1 16.96,-14 8.75,-8 16.97,-16.6 25.31,-25.6 12.41,-13.3 26.92,-29.2 40.59,-46.3 l 0.67,-0.9 c 6.24,-7.8 12.15,-15.8 17.53,-23.7 l 1.41,-2.1 c 1.21,-1.8 2.42,-3.5 3.6,-5.4 l 0.97,-1.5 c 4.77,-7.2 9.36,-14.7 13.76,-22.3 z m 516.99,0 c 4.4,7.7 9,15.2 13.8,22.5 l 0.9,1.3 c 1.3,2 2.5,3.8 3.8,5.7 l 1.2,1.8 c 5.4,7.9 11.3,15.9 17.6,23.8 l 0.3,0.4 c 13.8,17.3 28.4,33.3 40.9,46.7 8.4,9 16.6,17.7 25.3,25.6 5.5,4.9 11.1,9.6 17,14 4.4,-32.2 -2.3,-62.7 -19.2,-86.7 -17.4,-24.7 -44.2,-40.6 -75.7,-44.8 -8.4,-1.1 -17.4,-4.8 -25.9,-10.3 z m 777.1,657.4 c -30.1,-60.6 -74,-112.1 -126.8,-148.9 -33.8,-23.4 -60.8,-37 -108.7,-58.4 -55.9,-25.1 -113.8,-45.8 -172.3,-61.7 l -71,-19.2 73.2,-7.9 c 22.1,-2.3 77.9,-13.6 118.5,-66.9 10.5,-13.8 19.2,-29.4 25.8,-46.3 l -73.4,10.4 c -22.9,3.3 -46.2,3.1 -67.9,2.5 -14.8,-0.4 -29.3,-1.2 -43.6,-6 -23.3,-7.7 -44.3,-26 -57.6,-50.2 -12.1,-21.9 -17.9,-48.2 -17,-75.9 0.4,-11.2 1.8,-22 3.2,-32.5 l 3.3,-24.4 c -45.1,-38.2 -81.6,-72.8 -112.2,-115 -29.4,-40.6 -51.4,-86.2 -70.7,-129.4 -23.8,-53.2 -45.8,-108.2 -65.5,-163.5 -4.3,-11.9 -8.3,-22.6 -13.5,-31.4 -7.1,-0.5 -18.6,4.8 -28.7,9.6 -6.3,2.9 -12.8,5.9 -19.4,8.2 -17.3,6 -27.2,10.3 -30.4,15.5 -3.4,5.6 -2.8,17.7 -0.6,36.9 10.9,95.8 34.4,178.1 72,251.7 6.6,13 24,26.7 35.8,28.3 39.2,5.2 72.8,25.2 94.6,56.2 22,31.3 30.1,70.7 23.2,111.8 21.5,26.5 43.1,53.1 64.7,79.6 -6.8,-3.7 -13.2,-7.8 -19.5,-11.8 -6.2,-4 -12,-7.7 -18,-11 -30.5,-17 -61.9,-34.6 -89.3,-59.4 -9.6,-8.6 -18.2,-17.8 -27,-27.2 -12.8,-13.7 -27.8,-30.2 -42.1,-48.1 l -0.3,-0.3 c -6.8,-8.6 -13.2,-17.3 -19.1,-25.9 l -1.1,-1.7 c -1.5,-2.1 -2.9,-4.2 -4.3,-6.4 l -0.8,-1.2 c -21.4,-32.5 -39.3,-68.4 -53.4,-106.6 -35.3,-95.9 -53.2,-183.4 -54.8,-267.7 -0.5,-27.1 11.8,-37.3 30.5,-44.4 25.7,-9.6 59.1,-23.2 90.2,-41.9 26.2,-15.8 39.1,-46.5 34.6,-82 -6.7,-53.6 -29.9,-101.6 -67.1,-138.9 -20.1,-20.2 -28.8,-21.7 -37.3,-19.4 -34.4,30.6 -72.9,53.7 -114.6,68.5 -24.4,8.7 -49.9,14.4 -75.8,17 l -1.4,0.2 -1.4,-0.2 c -25.88,-2.6 -51.4,-8.3 -75.83,-17 -41.68,-14.8 -80.22,-37.9 -114.58,-68.5 -8.44,-2.3 -17.18,-0.8 -37.31,19.4 -37.14,37.3 -60.34,85.3 -67.11,138.9 -4.5,35.5 8.44,66.2 34.6,82 31.1,18.7 64.54,32.3 90.18,41.9 18.73,7.1 31.09,17.3 30.57,44.4 -1.63,84.3 -19.57,171.8 -54.84,267.7 -14.06,38.2 -32.02,74.1 -53.25,106.4 l -0.97,1.5 c -1.31,2 -2.67,4 -4.03,6 l -1.37,2 c -5.87,8.6 -12.29,17.3 -19.07,25.8 l -0.31,0.4 c -14.28,17.9 -29.27,34.3 -42.06,48.1 -8.77,9.4 -17.43,18.5 -26.97,27.2 -27.44,24.8 -58.91,42.4 -89.33,59.4 -6,3.3 -11.85,7 -18.04,11 -6.25,4 -12.73,8.1 -19.44,11.8 21.56,-26.5 43.11,-53.1 64.67,-79.6 -6.88,-41.1 1.23,-80.5 23.19,-111.8 21.83,-31 55.44,-51 94.63,-56.2 11.75,-1.6 29.13,-15.3 35.77,-28.3 37.58,-73.6 61.13,-155.9 72,-251.7 2.17,-19.2 2.77,-31.3 -0.6,-36.9 -3.18,-5.2 -13.15,-9.5 -30.44,-15.5 -6.53,-2.3 -13.03,-5.3 -19.31,-8.2 -10.16,-4.8 -21.49,-10.1 -28.74,-9.6 -5.22,8.8 -9.23,19.5 -13.47,31.4 -19.72,55.3 -41.78,110.3 -65.57,163.5 -19.31,43.2 -41.23,88.8 -70.65,129.4 -30.57,42.2 -67.1,76.8 -112.2,115 l 3.29,24.6 c 1.4,10.4 2.84,21.2 3.21,32.3 0.92,27.7 -4.97,54 -17.03,75.9 -13.27,24.2 -34.27,42.5 -57.61,50.2 -14.29,4.8 -28.77,5.6 -43.6,6 -21.71,0.6 -44.96,0.8 -67.87,-2.5 l -73.42,-10.4 c 6.58,16.9 15.26,32.5 25.77,46.3 40.6,53.3 96.45,64.6 118.58,66.9 l 73.2,7.9 -71.06,19.2 c -58.45,15.9 -116.41,36.6 -172.27,61.7 -47.88,21.4 -74.94,35 -108.68,58.4 -52.88,36.8 -96.73,88.3 -126.79,148.9 -40.15,80.9 -49.78,169.5 -26.44,243 7.38,23.2 18.03,45.2 30.16,69.5 21.08,42.2 46.16,88.1 78.54,128.5 -24.52,-64.3 -39.54,-125.9 -29.99,-190.2 9.46,-63.7 44.06,-124.4 97.42,-170.8 12.89,-11.3 27.28,-22 42.76,-31.8 33.94,-21.7 73.73,-39.8 121.64,-55.2 102.12,-32.9 211.95,-45.3 318.4,-36 -24.82,-27.2 -45.33,-59.2 -60.22,-94 l -49.96,-116.8 73.93,103.3 2.39,3.4 c 2.98,4.8 6.59,9.5 11.04,14.5 l 0.52,0.6 c 13.74,17.3 28.4,33.2 43.59,47.4 10.81,10.1 22.41,19.8 33.7,29.3 11.1,9.4 22.08,19.1 32.7,28.6 9.45,8.4 19.2,17.1 28.95,25.3 18.27,2.4 35.99,7.8 52.72,16.1 l 0.27,0.1 c 0.23,0.1 0.49,0.3 0.74,0.4 0.36,-0.2 0.72,-0.3 0.98,-0.4 7.44,-3.3 14.89,-6.7 22.35,-10.1 11.86,-5.3 24.13,-10.9 36.33,-16.1 36.42,-15.6 79.87,-31.8 125.98,-33.9 15.97,-0.7 31.7,0.4 46.37,1.6 h 1.39 c 14.7,-1.2 30.4,-2.3 46.3,-1.6 46.2,2.1 89.6,18.3 126,33.9 12.3,5.2 24.5,10.8 36.4,16.1 7.5,3.4 14.9,6.8 22.3,10.1 0.3,0.1 0.6,0.2 1,0.4 0.3,-0.2 0.7,-0.3 1,-0.5 16.7,-8.3 34.5,-13.7 52.7,-16.1 9.8,-8.2 19.5,-16.9 29,-25.3 10.6,-9.5 21.6,-19.2 32.8,-28.7 11.2,-9.4 22.8,-19.1 33.6,-29.2 15.2,-14.2 29.8,-30.1 43.6,-47.4 l 0.5,-0.6 c 4.4,-5 8,-9.7 11,-14.5 l 75.8,-105.5 -49.4,115.6 c -14.9,34.8 -35.4,66.8 -60.2,94 106.4,-9.3 216.2,3 318.4,36 47.9,15.4 87.7,33.5 121.6,55.2 15.5,9.8 29.9,20.5 42.8,31.8 53.3,46.4 87.9,107.1 97.4,170.8 9.5,64.3 -5.5,125.9 -30,190.2 32.4,-40.4 57.5,-86.3 78.5,-128.5 12.2,-24.3 22.8,-46.3 30.2,-69.5 23.3,-73.5 13.7,-162.1 -26.4,-243 z m -252.1,-439.7 c -15.1,-15.8 -31.9,-27.3 -49.9,-34.3 -20.4,-8 -36.3,-7.8 -56.3,-7.6 -9.7,0.1 -20.7,0.2 -33,-0.7 -24.6,-1.9 -49.6,-7.6 -74.5,-17.1 1.1,16.3 6.1,30.9 14.4,41.2 10.4,12.9 27.4,21.3 50.6,24.8 8.9,1.4 18,2 27.6,2.7 12.9,0.8 26.1,1.8 39.4,4.6 l 72.9,15.7 c 3.6,-9.4 6.6,-19.2 8.8,-29.3 z m -645.7,-914.2 c -6.7,-6.5 -13.5,-13 -20.3,-19.4 -25.6,-0.1 -51.1,-0.2 -76.7,-0.2 h -29.1 -11.7 -11.67 -29.16 c -25.54,0 -51.09,0.1 -76.63,0.2 -6.81,6.4 -13.59,12.9 -20.36,19.4 -3.02,2.9 -4.7,7.2 -4.62,11.8 0.08,4.6 1.88,8.8 4.94,11.5 6.56,5.9 11.76,10 16.85,13.4 39.61,26.4 80.11,39.3 120.27,38.2 h 0.38 0.4 c 40.1,1.1 80.6,-11.8 120.2,-38.2 5.1,-3.3 10.4,-7.6 16.9,-13.4 3.1,-2.7 4.9,-6.9 4.9,-11.5 0.1,-4.6 -1.6,-8.9 -4.6,-11.8 z m -782.13,871.6 c -8.33,0.6 -16.08,0.7 -23.23,0.7 -3.38,0 -6.61,0 -9.72,0 -20.07,-0.2 -35.91,-0.4 -56.35,7.6 -17.99,7 -34.76,18.5 -49.92,34.3 2.26,10.1 5.21,19.9 8.81,29.3 l 72.89,-15.7 c 13.3,-2.8 26.59,-3.8 39.44,-4.6 9.61,-0.7 18.68,-1.3 27.63,-2.7 23.18,-3.5 40.19,-11.9 50.56,-24.8 8.27,-10.3 13.29,-24.9 14.41,-41.2 -24.88,9.5 -49.86,15.2 -74.52,17.1 z m 1732.73,733.6 v 0 c -8,25.2 -19.1,48.2 -31.8,73.5 -32.1,64.2 -73.2,136.7 -135.1,188.7 l -45.3,38 23.7,-54.1 c 37.6,-85.9 67.8,-163.4 56,-242.5 -8.5,-57.2 -39.8,-111.9 -88.2,-154.1 -11.9,-10.3 -25.1,-20.2 -39.5,-29.3 -31.9,-20.4 -69.6,-37.5 -115.2,-52.2 -102.2,-32.9 -212.3,-44.6 -318.5,-33.7 -7.4,0.8 -12.9,1.4 -18.1,2.1 -3.8,0.5 -7.4,0.8 -11.1,0.9 l -26.7,1.1 c -1.6,1.4 -3.2,2.8 -4.8,4.3 -10.6,9.4 -21.6,19.2 -32.7,28.5 l -3.3,2.7 -4.2,0.5 c -16.5,1.6 -32.5,6.3 -47.8,13.9 -2.6,1.3 -6.6,3.3 -11.6,3.6 -5.9,0.3 -10.8,-1.9 -13.7,-3.1 -7.5,-3.4 -15,-6.7 -22.5,-10.1 -11.7,-5.4 -23.9,-10.8 -35.9,-16 -34.1,-14.6 -74.6,-29.8 -116.3,-31.6 -14.6,-0.7 -29.4,0.3 -43.4,1.5 l -3.67,0.1 -1.17,-0.1 c -13.91,-1.2 -28.79,-2.2 -43.41,-1.5 -41.66,1.8 -82.16,17 -116.29,31.6 -11.96,5.1 -24.1,10.6 -35.83,15.9 -7.53,3.4 -15.04,6.8 -22.56,10.2 -2.91,1.3 -7.78,3.4 -13.66,3.1 -5,-0.3 -8.94,-2.3 -11.82,-3.7 -15.07,-7.5 -31.08,-12.2 -47.57,-13.8 l -4.23,-0.5 -3.26,-2.7 c -11.11,-9.3 -22.08,-19.1 -32.69,-28.5 -1.61,-1.5 -3.22,-2.9 -4.84,-4.3 l -26.73,-1.1 c -3.62,-0.1 -7.25,-0.4 -11.08,-0.9 -5.16,-0.7 -10.73,-1.3 -18.06,-2.1 -106.2,-10.9 -216.35,0.8 -318.51,33.7 -45.62,14.7 -83.32,31.8 -115.24,52.2 -14.33,9.1 -27.61,19 -39.49,29.3 -48.39,42.2 -79.72,96.9 -88.21,154.1 -11.75,79.1 18.4,156.6 55.99,242.5 l 23.7,54.1 -45.27,-38 c -61.95,-52 -103.06,-124.6 -135.09,-188.7 -12.66,-25.3 -23.8,-48.3 -31.78,-73.5 -25.49,-80.2 -15.28,-176.3 28.02,-263.6 32.13,-64.8 79.08,-119.8 135.78,-159.3 35.56,-24.7 63.65,-38.8 113.16,-61 41.51,-18.6 84.16,-34.9 127.32,-48.6 -27.65,-10.8 -59.88,-30.2 -86.46,-65 -20.46,-26.9 -34.84,-59.7 -41.57,-95 l -1.28,-6.7 4.53,-5.1 c 19.28,-21.7 41.21,-37.4 65.18,-46.8 25.43,-9.9 45.47,-9.7 66.69,-9.5 9.6,0.1 19.52,0.2 30.6,-0.6 27.66,-2.1 55.95,-9.7 84.08,-22.7 l 17.56,-8.1 2.06,19.9 c 0.09,0.8 0.18,1.7 0.26,2.6 0.11,-3.1 0.11,-6.3 0.01,-9.4 -0.33,-9.7 -1.62,-19.3 -3.01,-29.7 l -5.28,-39.5 5.83,-4.9 c 46.22,-38.8 83.19,-73.2 113.4,-114.9 27.94,-38.6 49.1,-82.7 67.8,-124.5 23.5,-52.6 45.29,-106.9 64.77,-161.5 4.29,-12 10.16,-28.4 19.18,-41.6 l 1.85,-2.7 2.87,-1.6 c 1.78,-0.9 3.6,-1.7 5.43,-2.3 0.93,-0.3 1.87,-0.5 2.81,-0.7 -3.07,-1.7 -6.12,-3.5 -9.15,-5.4 -35.81,-21.6 -53.66,-62.4 -47.75,-109.1 7.54,-59.7 33.46,-113.3 74.96,-154.9 16.82,-16.9 32.6,-28.3 51.39,-28.3 5.35,0 10.95,0.9 16.88,2.9 l 2.76,0.9 2.16,2 c 1.86,1.7 3.75,3.3 5.64,5 -0.09,-1.1 -0.2,-2.1 -0.21,-3.2 -0.23,-12.3 4.56,-24.1 13.13,-32.3 7.67,-7.4 15.36,-14.7 23.06,-22 5.38,-5.1 12.45,-5.1 14.78,-5.1 26.1,-0.1 52.2,-0.1 78.29,-0.1 h 29.18 11.66 11.7 29.1 c 26.1,0 52.2,0 78.3,0.1 2.4,0 9.4,0 14.8,5.1 7.7,7.3 15.4,14.6 23.1,22 8.5,8.2 13.3,20 13.1,32.3 0,1.1 -0.1,2.1 -0.2,3.2 1.9,-1.7 3.8,-3.3 5.6,-5 l 2.2,-2 2.7,-0.9 c 26.8,-8.9 46.7,3.7 68.3,25.4 41.5,41.6 67.4,95.2 75,154.9 5.9,46.7 -12,87.5 -47.8,109.1 -3,1.9 -6.1,3.7 -9.1,5.4 0.9,0.2 1.9,0.4 2.8,0.7 1.8,0.6 3.6,1.4 5.4,2.3 l 2.9,1.6 1.8,2.7 c 8.4,12.2 13.9,26.6 19.2,41.6 19.5,54.6 41.3,108.9 64.8,161.5 18.7,41.8 39.9,85.9 67.8,124.5 30.2,41.7 67.2,76.1 113.4,114.9 l 5.8,4.9 -5.3,39.5 c -1.3,9.8 -2.6,19.9 -3,29.7 -0.1,3.1 -0.1,6.2 0,9.3 0.1,-0.9 0.2,-1.8 0.3,-2.7 l 2.1,-19.7 17.5,8.1 c 28.2,13 56.4,20.6 84.1,22.7 11.1,0.8 21,0.7 30.6,0.6 21.2,-0.2 41.3,-0.4 66.7,9.5 24,9.4 45.9,25.1 65.2,46.8 l 4.5,5.1 -1.3,6.7 c -6.7,35.3 -21.1,68.1 -41.6,95 -26.5,34.9 -58.8,54.2 -86.4,65 43.1,13.7 85.8,30 127.3,48.6 49.5,22.2 77.6,36.3 113.2,61 56.7,39.4 103.6,94.5 135.8,159.3 43.3,87.3 53.5,183.4 28,263.6"
         style="fill:#231f20;fill-opacity:1;fill-rule:nonzero;stroke:none"
         transform="matrix(0.13333333,0,0,-0.13333333,0,2666.6667)" />
      <path
         id="path30"
         d="m 7124.21,4039.3 c -40.64,27.1 -82.2,40.3 -123.42,39.2 h -0.39 -0.39 c -41.21,1.1 -82.78,-12.1 -123.42,-39.2 -5.24,-3.5 -10.57,-7.7 -17.31,-13.7 -3.13,-2.8 -4.98,-7.1 -5.06,-11.8 -0.09,-4.8 1.64,-9.2 4.74,-12.2 6.95,-6.7 13.9,-13.3 20.89,-19.9 26.22,-0.1 52.44,-0.1 78.65,-0.1 h 29.93 11.97 11.97 29.92 c 26.22,0 52.44,0 78.66,0.1 7,6.6 13.95,13.2 20.89,19.9 3.1,3 4.83,7.4 4.74,12.2 -0.08,4.7 -1.93,9 -5.07,11.8 -6.62,5.9 -12.12,10.3 -17.3,13.7"
         style="fill:#231f20;fill-opacity:1;fill-rule:nonzero;stroke:none"
         transform="matrix(0.13333333,0,0,-0.13333333,0,2666.6667)" />
      <path
         id="path31"
         d="m 6720,4740.9 c -1.21,1.9 -2.46,3.7 -3.7,5.5 l -1.44,2.1 c -5.53,8.2 -11.59,16.4 -18,24.4 l -0.69,0.9 c -14.02,17.5 -28.91,33.9 -41.65,47.5 -8.56,9.2 -17,18.1 -25.98,26.3 -5.58,5 -11.4,9.8 -17.39,14.3 -4.5,-33 2.35,-64.3 19.72,-89 17.79,-25.3 45.37,-41.6 77.63,-45.9 8.6,-1.1 17.88,-4.9 26.62,-10.5 -4.52,7.8 -9.23,15.4 -14.12,22.9 l -1,1.5"
         style="fill:#231f20;fill-opacity:1;fill-rule:nonzero;stroke:none"
         transform="matrix(0.13333333,0,0,-0.13333333,0,2666.6667)" />
      <path
         id="path32"
         d="m 7369.93,4772.9 c 17.37,24.8 24.22,56 19.72,89 -5.99,-4.5 -11.82,-9.3 -17.39,-14.3 -8.95,-8.1 -17.4,-17.1 -25.99,-26.3 -12.81,-13.7 -27.82,-30.2 -41.97,-47.9 l -0.34,-0.4 c -6.46,-8.2 -12.53,-16.4 -18.02,-24.5 l -1.25,-1.8 c -1.3,-1.9 -2.62,-3.8 -3.89,-5.8 l -0.91,-1.4 c -4.93,-7.5 -9.67,-15.2 -14.22,-23 8.75,5.6 18.02,9.4 26.62,10.5 32.27,4.3 59.84,20.6 77.64,45.9"
         style="fill:#231f20;fill-opacity:1;fill-rule:nonzero;stroke:none"
         transform="matrix(0.13333333,0,0,-0.13333333,0,2666.6667)" />
      <path
         id="path33"
         d="m 7000.4,3874.9 c -560.79,0 -1017.03,456.3 -1017.03,1017.1 0,126.8 23.42,248.2 66,360.2 5.99,-4.8 12.08,-9.5 18.37,-13.9 34.63,-24 62.4,-37.9 111.54,-60 57.32,-25.7 116.81,-47 176.79,-63.2 l 72.94,-19.8 -75.13,-8 c -22.71,-2.5 -80.03,-14 -121.7,-68.7 -10.78,-14.2 -19.7,-30.2 -26.44,-47.6 l 75.35,10.8 c 23.52,3.3 47.37,3.2 69.66,2.5 15.21,-0.5 30.08,-1.3 44.74,-6.1 23.95,-7.9 45.51,-26.7 59.12,-51.5 12.38,-22.6 18.43,-49.5 17.48,-78 -0.39,-11.3 -1.86,-22.4 -3.3,-33.1 l -3.37,-25.3 c 46.29,-39.1 83.78,-74.7 115.15,-118 30.19,-41.7 52.69,-88.5 72.51,-132.8 24.41,-54.6 47.05,-111.1 67.28,-167.8 4.36,-12.2 8.48,-23.1 13.83,-32.2 7.44,-0.5 19.06,4.9 29.5,9.8 6.45,3 13.11,6.1 19.81,8.4 17.75,6.2 27.98,10.6 31.25,16 3.45,5.7 2.84,18.2 0.61,37.8 -11.15,98.3 -35.33,182.9 -73.9,258.3 -6.81,13.4 -24.65,27.5 -36.71,29.1 -40.22,5.3 -74.7,25.8 -97.11,57.7 -22.54,32.1 -30.86,72.5 -23.8,114.7 -22.13,27.2 -44.25,54.5 -66.37,81.7 6.89,-3.8 13.54,-8.1 19.95,-12.1 6.35,-4.1 12.35,-7.9 18.51,-11.4 31.23,-17.4 63.52,-35.4 91.68,-60.9 9.8,-8.9 18.69,-18.3 27.69,-27.9 13.13,-14.1 28.51,-31 43.16,-49.3 l 0.32,-0.4 c 6.96,-8.7 13.55,-17.7 19.57,-26.5 l 1.41,-2.1 c 1.39,-2 2.79,-4.1 4.13,-6.2 l 1,-1.5 c 21.78,-33.2 40.22,-70 54.64,-109.2 36.2,-98.4 54.61,-188.2 56.28,-274.7 0.54,-27.8 -12.15,-38.3 -31.36,-45.5 -26.32,-10 -60.64,-23.9 -92.56,-43.1 -26.85,-16.2 -40.12,-47.7 -35.51,-84.1 6.94,-55.1 30.76,-104.3 68.88,-142.6 20.67,-20.7 29.63,-22.2 38.29,-19.9 35.27,31.5 74.81,55.1 117.59,70.3 25.08,8.9 51.26,14.8 77.82,17.5 l 1.44,0.1 1.43,-0.1 c 26.57,-2.7 52.74,-8.6 77.83,-17.5 42.76,-15.2 82.3,-38.8 117.59,-70.3 8.68,-2.3 17.63,-0.8 38.3,19.9 38.11,38.3 61.93,87.5 68.86,142.6 4.61,36.4 -8.66,67.9 -35.5,84.1 -31.93,19.2 -66.24,33.1 -92.57,43.1 -19.2,7.2 -31.9,17.7 -31.36,45.5 1.67,86.5 20.08,176.3 56.29,274.7 14.41,39.2 32.85,76 54.79,109.4 l 0.8,1.3 c 1.46,2.2 2.93,4.4 4.41,6.5 l 1.18,1.8 c 5.98,8.8 12.57,17.7 19.58,26.5 l 0.31,0.4 c 14.68,18.4 30.05,35.2 43.16,49.3 9.03,9.7 17.93,19.1 27.69,27.9 28.14,25.5 60.44,43.5 91.67,60.9 6.15,3.5 12.16,7.3 18.51,11.4 6.42,4 13.07,8.3 19.96,12.1 -22.12,-27.2 -44.24,-54.5 -66.37,-81.7 7.06,-42.2 -1.26,-82.6 -23.81,-114.7 -22.4,-31.9 -56.89,-52.4 -97.11,-57.7 -12.05,-1.6 -29.89,-15.7 -36.71,-29.1 -38.57,-75.4 -62.74,-160 -73.89,-258.3 -2.23,-19.6 -2.84,-32.1 0.61,-37.8 3.27,-5.4 13.49,-9.8 31.25,-16 6.69,-2.3 13.36,-5.4 19.81,-8.4 10.46,-4.9 22.2,-10.3 29.47,-9.8 5.38,9 9.5,20 13.85,32.2 20.24,56.7 42.88,113.2 67.29,167.8 19.83,44.3 42.33,91.1 72.51,132.8 31.39,43.3 68.88,78.9 115.15,118 l -3.35,25.1 c -1.45,10.7 -2.93,21.8 -3.31,33.3 -0.95,28.5 5.08,55.4 17.46,78 13.62,24.8 35.17,43.6 59.13,51.5 14.66,4.8 29.53,5.6 44.74,6.1 22.28,0.7 46.14,0.8 69.65,-2.5 l 75.35,-10.8 c -6.74,17.4 -15.65,33.4 -26.44,47.6 -41.67,54.7 -98.98,66.2 -121.69,68.7 l -75.14,8 72.95,19.8 c 59.97,16.2 119.45,37.5 176.79,63.2 49.15,22.1 76.92,36 111.53,60 6.29,4.4 12.38,9.1 18.37,13.9 42.59,-112 66,-233.4 66,-360.2 0,-560.8 -456.22,-1017.1 -1017.02,-1017.1 z m 1036.72,1471.2 c 3.78,5.8 7.47,11.6 10.98,17.5 5.31,9 10.41,18.1 15.08,27.5 41.2,83.1 51.09,174 27.12,249.4 -7.56,23.8 -18.48,46.4 -30.94,71.3 -21.64,43.3 -47.39,90.4 -80.61,131.9 25.17,-66 40.58,-129.2 30.78,-195.1 -6.63,-44.8 -25.35,-88 -54.02,-126.1 -13.25,-17.7 -28.63,-34.2 -45.96,-49.3 -12.64,-11 -26.71,-21.5 -41.79,-31.3 -0.71,-0.4 -1.38,-0.9 -2.09,-1.4 -34.84,-22.2 -75.68,-40.7 -124.84,-56.6 -104.81,-33.8 -217.54,-46.5 -326.76,-36.9 25.47,-28 46.51,-60.7 61.8,-96.5 l 50.71,-118.6 -77.78,108.2 c -3.05,5 -6.75,9.8 -11.32,14.9 l -0.55,0.7 c -14.08,17.7 -29.13,34 -44.72,48.6 -11.07,10.3 -22.94,20.3 -34.42,30 -11.56,9.7 -22.82,19.7 -33.72,29.4 -9.7,8.6 -19.7,17.5 -29.71,26 -18.75,2.4 -36.93,8 -54.12,16.5 -0.35,0.2 -0.71,0.4 -1.03,0.5 -0.37,-0.1 -0.75,-0.3 -1.01,-0.4 -7.62,-3.4 -15.24,-6.9 -22.89,-10.3 -12.19,-5.5 -24.79,-11.2 -37.32,-16.6 -37.39,-16 -81.98,-32.7 -129.3,-34.7 -16.38,-0.7 -32.53,0.3 -47.58,1.6 h -1.42 c -15.05,-1.3 -31.2,-2.3 -47.59,-1.6 -47.32,2 -91.91,18.7 -129.29,34.7 -12.52,5.4 -25.11,11.1 -37.28,16.6 -7.66,3.4 -15.31,6.9 -22.94,10.3 -0.27,0.1 -0.64,0.3 -1.01,0.4 -0.26,-0.1 -0.52,-0.2 -0.76,-0.4 l -0.28,-0.1 c -17.16,-8.5 -35.35,-14.1 -54.1,-16.5 -10.01,-8.5 -20.01,-17.4 -29.71,-26 -10.9,-9.7 -22.17,-19.7 -33.57,-29.3 -11.57,-9.7 -23.48,-19.8 -34.58,-30.1 -15.58,-14.6 -30.63,-30.9 -44.73,-48.6 l -0.53,-0.7 c -4.57,-5.1 -8.28,-9.9 -11.34,-14.9 l -2.45,-3.4 -75.86,-106.1 51.26,119.9 c 15.29,35.8 36.33,68.5 61.8,96.5 -109.24,-9.6 -221.96,3.1 -326.77,36.9 -49.16,15.9 -89.99,34.4 -124.83,56.6 -0.71,0.5 -1.38,1 -2.09,1.4 -15.08,9.8 -29.15,20.3 -41.79,31.3 -17.33,15.1 -32.71,31.6 -45.96,49.3 -28.68,38.1 -47.39,81.3 -54.02,126.1 -9.8,65.9 5.6,129.1 30.77,195.1 -33.23,-41.5 -58.96,-88.6 -80.6,-131.9 -12.46,-24.9 -23.38,-47.5 -30.95,-71.3 -23.96,-75.5 -14.07,-166.3 27.13,-249.4 4.67,-9.4 9.76,-18.5 15.07,-27.5 3.52,-5.9 7.21,-11.7 10.99,-17.5 -61.17,-139.1 -95.25,-292.7 -95.25,-454.1 0,-624.2 507.8,-1132 1131.97,-1132 624.18,0 1131.97,507.8 1131.97,1132 0,161.4 -34.08,315 -95.25,454.1"
         style="fill:#231f20;fill-opacity:1;fill-rule:nonzero;stroke:none"
         transform="matrix(0.13333333,0,0,-0.13333333,0,2666.6667)" />
      <path
         id="path34"
         d="m 6132.69,5508.4 c 11.52,-10 24.4,-19.6 38.27,-28.5 184.47,259.5 487.51,429.1 829.44,429.1 341.93,0 644.97,-169.6 829.44,-429.1 13.86,8.9 26.75,18.5 38.26,28.5 17.74,15.5 33.15,32.6 46.01,50.9 -206.12,281.5 -538.89,464.7 -913.71,464.7 -374.8,0 -707.58,-183.2 -913.71,-464.7 12.86,-18.3 28.27,-35.4 46,-50.9"
         style="fill:#231f20;fill-opacity:1;fill-rule:nonzero;stroke:none"
         transform="matrix(0.13333333,0,0,-0.13333333,0,2666.6667)" />
    </g>
    <ellipse
       style="fill:#00002d;fill-opacity:1;stroke-width:0.993132"
       id="path35"
       cx="1333.3329"
       cy="1333.333"
       rx="1329.5763"
       ry="1329.5754"
       transform="translate(1.83936e-4,1.11232e-4)"
       inkscape:label="Risy Background" />
    <g
       id="g34"
       inkscape:label="Risy"
       transform="matrix(8.8090208,0,0,8.8090208,-13935.166,-16411.558)"
       style="fill:#008080;fill-opacity:1">
      <path
         id="path6"
         d="m 13120.2,4090.4 c -39.6,26.4 -80.1,39.3 -120.2,38.2 h -0.4 -0.4 c -40.1,1.1 -80.6,-11.8 -120.2,-38.2 -5.1,-3.4 -10.3,-7.5 -16.9,-13.4 -3.1,-2.7 -4.9,-6.9 -4.9,-11.5 -0.1,-4.6 1.6,-8.9 4.6,-11.8 6.7,-6.5 13.5,-13 20.3,-19.4 25.6,-0.1 51.1,-0.2 76.7,-0.2 h 29.1 11.7 11.7 29.1 c 25.6,0 51.1,0.1 76.7,0.2 6.8,6.4 13.6,12.9 20.3,19.4 3,2.9 4.7,7.2 4.6,11.8 0,4.6 -1.8,8.8 -4.9,11.5 -6.5,5.8 -11.8,10.1 -16.9,13.4"
         style="fill:#008080;fill-opacity:1;fill-rule:nonzero;stroke:none"
         transform="matrix(0.13333333,0,0,-0.13333333,0,2666.6667)" />
      <path
         id="path9"
         d="m 13662,4976.9 c -9.6,-0.7 -18.7,-1.3 -27.6,-2.7 -23.2,-3.5 -40.2,-11.9 -50.6,-24.8 -8.3,-10.3 -13.3,-24.9 -14.4,-41.2 24.9,9.5 49.9,15.2 74.5,17.1 12.3,0.9 23.3,0.8 33,0.7 20,-0.2 35.9,-0.4 56.3,7.6 18,7 34.8,18.5 49.9,34.3 -2.2,10.1 -5.2,19.9 -8.8,29.3 l -72.9,-15.7 c -13.3,-2.8 -26.5,-3.7 -39.4,-4.6"
         style="fill:#008080;fill-opacity:1;fill-rule:nonzero;stroke:none"
         transform="matrix(0.13333333,0,0,-0.13333333,0,2666.6667)"
         clip-path="url(#clipPath11-3)" />
      <path
         id="path12"
         d="m 12364.8,4974.2 c -8.9,1.4 -18,2 -27.6,2.7 -12.9,0.9 -26.2,1.8 -39.4,4.6 l -72.9,15.7 c -3.6,-9.4 -6.6,-19.2 -8.9,-29.3 15.2,-15.8 32,-27.3 50,-34.3 20.4,-8 36.2,-7.8 56.3,-7.6 3.1,0 6.4,0 9.7,0 7.2,0 14.9,-0.1 23.3,-0.7 24.6,-1.9 49.6,-7.6 74.5,-17.1 -1.1,16.3 -6.2,30.9 -14.4,41.2 -10.4,12.9 -27.4,21.3 -50.6,24.8"
         style="fill:#008080;fill-opacity:1;fill-rule:nonzero;stroke:none"
         transform="matrix(0.13333333,0,0,-0.13333333,0,2666.6667)"
         clip-path="url(#clipPath14-5)" />
      <path
         id="path15"
         d="m 12722.8,4779.4 -1.4,2.1 c -5.4,7.9 -11.3,15.9 -17.6,23.7 l -0.6,0.9 c -13.7,17.1 -28.2,33 -40.6,46.3 -8.4,9 -16.6,17.6 -25.3,25.6 -5.5,4.9 -11.1,9.6 -17,14 -4.4,-32.2 2.3,-62.7 19.2,-86.8 17.4,-24.6 44.2,-40.5 75.7,-44.7 8.4,-1.1 17.4,-4.8 25.9,-10.3 -4.4,7.6 -9,15.1 -13.7,22.3 l -1,1.5 c -1.2,1.9 -2.4,3.6 -3.6,5.4"
         style="fill:#008080;fill-opacity:1;fill-rule:nonzero;stroke:none"
         transform="matrix(0.13333333,0,0,-0.13333333,0,2666.6667)"
         clip-path="url(#clipPath17-2)" />
      <path
         id="path18"
         d="m 13359.7,4805.3 c 16.9,24 23.6,54.5 19.2,86.7 -5.9,-4.4 -11.5,-9.1 -17,-14 -8.7,-7.9 -16.9,-16.6 -25.3,-25.6 -12.5,-13.4 -27.1,-29.4 -40.9,-46.7 l -0.3,-0.4 c -6.3,-7.9 -12.2,-15.9 -17.6,-23.8 l -1.2,-1.8 c -1.3,-1.9 -2.5,-3.7 -3.8,-5.7 l -0.9,-1.3 c -4.8,-7.3 -9.4,-14.8 -13.8,-22.5 8.5,5.5 17.5,9.2 25.9,10.3 31.5,4.2 58.3,20.1 75.7,44.8"
         style="fill:#008080;fill-opacity:1;fill-rule:nonzero;stroke:none"
         transform="matrix(0.13333333,0,0,-0.13333333,0,2666.6667)"
         clip-path="url(#clipPath20-8)" />
      <path
         id="path21"
         d="m 11978.7,5380.8 c 22.2,-37.5 49.9,-70.8 81.9,-98.3 9.7,-8.4 19.7,-16.5 30.2,-23.8 33.8,-23.4 60.8,-37 108.7,-58.4 55.9,-25.1 113.8,-45.8 172.3,-61.7 l 71,-19.2 -73.2,-7.9 c -22.1,-2.3 -77.9,-13.6 -118.5,-66.9 -10.6,-13.8 -19.2,-29.4 -25.8,-46.3 l 73.4,10.4 c 22.9,3.3 46.2,3.1 67.9,2.5 14.8,-0.4 29.3,-1.2 43.6,-6 23.3,-7.7 44.3,-26 57.6,-50.2 12,-21.9 17.9,-48.2 17,-75.9 -0.4,-11.1 -1.8,-21.9 -3.2,-32.3 l -3.3,-24.6 c 45.1,-38.2 81.7,-72.8 112.2,-115 29.4,-40.6 51.4,-86.2 70.7,-129.4 23.8,-53.2 45.8,-108.2 65.5,-163.5 4.3,-11.9 8.3,-22.6 13.5,-31.4 7.3,-0.5 18.6,4.8 28.7,9.6 6.3,2.9 12.8,5.9 19.4,8.2 17.2,6 27.2,10.3 30.4,15.5 3.4,5.6 2.8,17.7 0.6,36.9 -10.9,95.8 -34.4,178.1 -72,251.7 -6.6,13 -24,26.7 -35.8,28.3 -39.2,5.2 -72.8,25.2 -94.6,56.2 -22,31.3 -30.1,70.7 -23.2,111.8 -21.6,26.5 -43.1,53.1 -64.7,79.6 6.7,-3.7 13.2,-7.8 19.5,-11.8 6.2,-4 12,-7.7 18,-11 30.4,-17 61.9,-34.6 89.3,-59.4 9.6,-8.7 18.2,-17.8 27,-27.2 12.8,-13.8 27.8,-30.2 42.1,-48.1 l 0.3,-0.4 c 6.8,-8.5 13.2,-17.2 19.1,-25.8 l 1.3,-2 c 1.4,-2 2.7,-4 4.1,-6 l 0.9,-1.5 c 21.3,-32.3 39.2,-68.2 53.3,-106.4 35.2,-95.9 53.2,-183.4 54.8,-267.7 0.5,-27.1 -11.8,-37.3 -30.5,-44.4 -25.7,-9.6 -59.1,-23.2 -90.2,-41.9 -26.2,-15.8 -39.1,-46.5 -34.6,-82 6.7,-53.6 29.9,-101.6 67.1,-138.9 20.1,-20.2 28.9,-21.7 37.3,-19.4 34.3,30.6 72.9,53.7 114.6,68.5 24.4,8.7 49.9,14.4 75.8,17 l 1.4,0.2 1.4,-0.2 c 25.9,-2.6 51.4,-8.3 75.8,-17 41.7,-14.8 80.2,-37.8 114.6,-68.5 8.5,-2.3 17.2,-0.8 37.3,19.4 37.2,37.3 60.4,85.3 67.1,138.9 4.5,35.5 -8.4,66.2 -34.6,82 -31.1,18.7 -64.5,32.3 -90.2,41.9 -18.7,7.1 -31,17.3 -30.5,44.4 1.6,84.3 19.5,171.8 54.8,267.7 14.1,38.2 32,74.1 53.4,106.6 l 0.8,1.2 c 1.4,2.2 2.8,4.3 4.3,6.4 l 1.1,1.7 c 5.9,8.6 12.3,17.3 19.1,25.9 l 0.3,0.3 c 14.3,17.9 29.3,34.4 42.1,48.1 8.8,9.4 17.4,18.6 27,27.2 27.4,24.8 58.8,42.4 89.3,59.4 6,3.3 11.8,7 18,11 6.3,4 12.7,8.1 19.5,11.8 -21.6,-26.5 -43.2,-53.1 -64.7,-79.6 6.9,-41.1 -1.2,-80.5 -23.2,-111.8 -21.8,-31 -55.4,-51 -94.6,-56.2 -11.8,-1.6 -29.2,-15.3 -35.8,-28.3 -37.6,-73.6 -61.1,-155.9 -72,-251.7 -2.2,-19.2 -2.8,-31.3 0.6,-36.9 3.2,-5.2 13.1,-9.5 30.4,-15.5 6.6,-2.3 13.1,-5.3 19.3,-8.2 10.2,-4.8 21.7,-10.1 28.8,-9.6 5.2,8.8 9.2,19.5 13.5,31.4 19.7,55.3 41.7,110.3 65.5,163.5 19.3,43.2 41.3,88.8 70.7,129.4 30.6,42.2 67.1,76.8 112.2,115 l -3.3,24.4 c -1.4,10.5 -2.8,21.3 -3.2,32.5 -0.9,27.7 4.9,54 17,75.9 13.3,24.2 34.3,42.5 57.6,50.2 14.3,4.8 28.8,5.6 43.6,6 21.7,0.6 45,0.8 67.9,-2.5 l 73.4,-10.4 c -6.6,16.9 -15.3,32.5 -25.8,46.3 -40.6,53.3 -96.4,64.6 -118.5,66.9 l -73.3,7.9 71.1,19.2 c 58.5,15.9 116.4,36.6 172.3,61.7 47.9,21.4 74.9,35 108.7,58.4 10.5,7.3 20.5,15.4 30.2,23.8 31.9,27.5 59.7,60.8 81.9,98.3 5.1,8.7 10.1,17.6 14.7,26.8 40.1,80.9 49.7,169.5 26.4,243 -7.4,23.2 -18,45.2 -30.2,69.5 -21,42.2 -46.1,88.1 -78.5,128.5 24.5,-64.3 39.5,-125.9 30,-190.2 -6.5,-43.5 -24.7,-85.7 -52.7,-122.8 -12.9,-17.2 -27.9,-33.3 -44.7,-48 -12.4,-10.8 -26.1,-21 -40.8,-30.5 -0.6,-0.4 -1.3,-0.9 -2,-1.3 -33.9,-21.7 -73.7,-39.8 -121.6,-55.2 -102.2,-33 -212,-45.3 -318.4,-36 24.8,-27.2 45.3,-59.2 60.2,-94 l 49.4,-115.6 -75.8,105.5 c -3,4.8 -6.6,9.5 -11,14.5 l -0.6,0.6 c -13.7,17.3 -28.3,33.2 -43.5,47.4 -10.8,10.1 -22.4,19.8 -33.6,29.2 -11.2,9.5 -22.2,19.2 -32.8,28.7 -9.5,8.4 -19.2,17.1 -29,25.3 -18.2,2.4 -36,7.8 -52.7,16.1 -0.3,0.2 -0.7,0.3 -1,0.5 -0.4,-0.2 -0.7,-0.3 -1,-0.4 -7.4,-3.3 -14.8,-6.7 -22.3,-10.1 -11.9,-5.3 -24.2,-10.9 -36.4,-16.1 -36.4,-15.6 -79.8,-31.8 -126,-33.9 -15.9,-0.7 -31.7,0.4 -46.3,1.6 h -1.4 c -14.7,-1.2 -30.4,-2.3 -46.4,-1.6 -46.1,2.1 -89.5,18.3 -125.9,33.9 -12.2,5.2 -24.5,10.8 -36.4,16.1 -7.4,3.4 -14.9,6.8 -22.3,10.1 -0.3,0.1 -0.6,0.2 -1,0.4 -0.3,-0.1 -0.5,-0.3 -0.7,-0.4 l -0.3,-0.1 c -16.7,-8.3 -34.5,-13.7 -52.7,-16.1 -9.8,-8.2 -19.5,-16.9 -29,-25.3 -10.6,-9.5 -21.6,-19.2 -32.7,-28.6 -11.3,-9.5 -22.9,-19.2 -33.7,-29.3 -15.2,-14.2 -29.8,-30.1 -43.6,-47.4 l -0.5,-0.6 c -4.4,-5 -8.1,-9.7 -11,-14.5 l -2.4,-3.4 -73.9,-103.3 49.9,116.8 c 14.9,34.8 35.4,66.8 60.2,94 -106.4,-9.3 -216.3,3 -318.4,36 -47.9,15.4 -87.7,33.5 -121.6,55.2 -0.7,0.4 -1.4,0.9 -2,1.3 -14.7,9.5 -28.5,19.7 -40.8,30.5 -16.9,14.7 -31.8,30.8 -44.8,48 -27.9,37.1 -46.1,79.3 -52.6,122.8 -9.5,64.3 5.5,125.9 30,190.2 -32.4,-40.4 -57.5,-86.3 -78.5,-128.5 -12.2,-24.3 -22.8,-46.3 -30.2,-69.5 -23.3,-73.5 -13.7,-162.1 26.4,-243 4.6,-9.2 9.6,-18.1 14.7,-26.8"
         style="fill:#008080;fill-opacity:1;fill-rule:nonzero;stroke:none"
         transform="matrix(0.13333333,0,0,-0.13333333,0,2666.6667)"
         clip-path="url(#clipPath23-7)" />
      <path
         id="path24"
         d="m 14034.4,5350.6 c -23.7,-36.3 -52.4,-68.4 -84.9,-95.2 43.3,-112.9 67.1,-235.4 67.1,-363.4 0,-560.8 -456.2,-1017.1 -1017,-1017.1 -560.8,0 -1017,456.3 -1017,1017.1 0,128 23.8,250.5 67.1,363.4 -32.5,26.8 -61.2,58.9 -84.9,95.2 -62.4,-140.2 -97.2,-295.4 -97.2,-458.6 0,-624.2 507.8,-1132 1132,-1132 624.2,0 1132,507.8 1132,1132 0,163.2 -34.8,318.4 -97.2,458.6"
         style="fill:#008080;fill-opacity:1;fill-rule:nonzero;stroke:none"
         transform="matrix(0.13333333,0,0,-0.13333333,0,2666.6667)"
         clip-path="url(#clipPath26-6)" />
      <path
         id="path27"
         d="m 12131.9,5508.4 c 11.5,-10 24.4,-19.6 38.3,-28.5 184.4,259.5 487.5,429.1 829.4,429.1 341.9,0 645,-169.6 829.4,-429.1 13.9,8.9 26.8,18.5 38.3,28.5 17.7,15.5 33.1,32.6 46,50.9 -206.1,281.5 -538.9,464.7 -913.7,464.7 -374.8,0 -707.6,-183.2 -913.7,-464.7 12.8,-18.3 28.3,-35.4 46,-50.9"
         style="fill:#008080;fill-opacity:1;fill-rule:nonzero;stroke:none"
         transform="matrix(0.13333333,0,0,-0.13333333,0,2666.6667)"
         clip-path="url(#clipPath29-2)" />
    </g>
  </g>
</svg>
